{
	"asset":{
		"generator":"Khronos glTF Blender I/O v3.6.27",
		"version":"2.0"
	},
	"scene":0,
	"scenes":[
		{
			"name":"Scene",
			"nodes":[
				0
			]
		}
	],
	"nodes":[
		{
			"mesh":0,
			"name":"Cubo",
			"scale":[
				1,
				1.469083309173584,
				0.46679484844207764
			],
			"translation":[
				0,
				4.5071210861206055,
				0
			]
		}
	],
	"materials":[
		{
			"doubleSided":true,
			"name":"Materiais",
			"pbrMetallicRoughness":{
				"baseColorFactor":[
					0.800000011920929,
					0.800000011920929,
					0.800000011920929,
					1
				],
				"metallicFactor":0,
				"roughnessFactor":0.5
			}
		}
	],
	"meshes":[
		{
			"name":"Cubo",
			"primitives":[
				{
					"attributes":{
						"POSITION":0,
						"NORMAL":1,
						"TEXCOORD_0":2
					},
					"indices":3,
					"material":0
				}
			]
		}
	],
	"accessors":[
		{
			"bufferView":0,
			"componentType":5126,
			"count":2487,
			"max":[
				5.741190433502197,
				1.928287148475647,
				1.9848761558532715
			],
			"min":[
				-5.741190433502197,
				-3.056413173675537,
				-1.001558780670166
			],
			"type":"VEC3"
		},
		{
			"bufferView":1,
			"componentType":5126,
			"count":2487,
			"type":"VEC3"
		},
		{
			"bufferView":2,
			"componentType":5126,
			"count":2487,
			"type":"VEC2"
		},
		{
			"bufferView":3,
			"componentType":5123,
			"count":14424,
			"type":"SCALAR"
		}
	],
	"bufferViews":[
		{
			"buffer":0,
			"byteLength":29844,
			"byteOffset":0,
			"target":34962
		},
		{
			"buffer":0,
			"byteLength":29844,
			"byteOffset":29844,
			"target":34962
		},
		{
			"buffer":0,
			"byteLength":19896,
			"byteOffset":59688,
			"target":34962
		},
		{
			"buffer":0,
			"byteLength":28848,
			"byteOffset":79584,
			"target":34963
		}
	],
	"buffers":[
		{
			"byteLength":108432,
			"uri":"data:application/octet-stream;base64,"
		}
	]
}
